HIERARCHY
ROOT joint_Root
{
	OFFSET 0.0 0.0 0.0
	CHANNELS 6 Xposition Yposition Zposition Zrotation Xrotation Yrotation 
	JOINT Hips
	{
		OFFSET -0.726466 93.3139 -2.00062
		CHANNELS 6 Xposition Yposition Zposition Zrotation Xrotation Yrotation 
		JOINT Spine
		{
			OFFSET 15.7357 0.0 0.0
			CHANNELS 6 Xposition Yposition Zposition Zrotation Xrotation Yrotation 
			JOINT Chest
			{
				OFFSET 8.98455 -0.406207 0.0
				CHANNELS 6 Xposition Yposition Zposition Zrotation Xrotation Yrotation 
				JOINT Neck
				{
					OFFSET 16.3773 0.0 0.0
					CHANNELS 6 Xposition Yposition Zposition Zrotation Xrotation Yrotation 
					JOINT Head
					{
						OFFSET 6.45672 0.0 0.0
						CHANNELS 6 Xposition Yposition Zposition Zrotation Xrotation Yrotation 
						End Site
						{
							OFFSET 0.0 0.0 0.0
						}
					}
				}
				JOINT Shoulder_L
				{
					OFFSET 12.9942 -0.242716 4.98039
					CHANNELS 6 Xposition Yposition Zposition Zrotation Xrotation Yrotation 
					JOINT UpperArm_L
					{
						OFFSET 5.34809 0.0 0.0
						CHANNELS 6 Xposition Yposition Zposition Zrotation Xrotation Yrotation 
						JOINT LowerArm_L
						{
							OFFSET 24.3286 1.87007e-05 0.0
							CHANNELS 6 Xposition Yposition Zposition Zrotation Xrotation Yrotation 
							JOINT Hand_L
							{
								OFFSET 22.2916 0.0 0.0
								CHANNELS 6 Xposition Yposition Zposition Zrotation Xrotation Yrotation 
								End Site
								{
									OFFSET 0.0 0.0 0.0
								}
							}
						}
					}
				}
				JOINT Shoulder_R
				{
					OFFSET 12.9945 -0.242716 -4.98039
					CHANNELS 6 Xposition Yposition Zposition Zrotation Xrotation Yrotation 
					JOINT UpperArm_R
					{
						OFFSET -5.34813 0.0 0.0
						CHANNELS 6 Xposition Yposition Zposition Zrotation Xrotation Yrotation 
						JOINT LowerArm_R
						{
							OFFSET -24.3289 0.000322201 0.0
							CHANNELS 6 Xposition Yposition Zposition Zrotation Xrotation Yrotation 
							JOINT Hand_R
							{
								OFFSET -22.2915 -0.000108084 0.0
								CHANNELS 6 Xposition Yposition Zposition Zrotation Xrotation Yrotation 
								End Site
								{
									OFFSET 0.0 0.0 0.0
								}
							}
						}
					}
				}
			}
		}
		JOINT UpperLeg_L
		{
			OFFSET -2.19248 -6.46944 0.0
			CHANNELS 6 Xposition Yposition Zposition Zrotation Xrotation Yrotation 
			JOINT LowerLeg_L
			{
				OFFSET 39.0811 0.0 -1.23785e-05
				CHANNELS 6 Xposition Yposition Zposition Zrotation Xrotation Yrotation 
				JOINT Foot_L
				{
					OFFSET 40.9854 0.0 -1.26872e-05
					CHANNELS 6 Xposition Yposition Zposition Zrotation Xrotation Yrotation 
					JOINT Toes_L
					{
						OFFSET 11.7543 0.0 0.0
						CHANNELS 6 Xposition Yposition Zposition Zrotation Xrotation Yrotation 
						End Site
						{
							OFFSET 0.0 0.0 0.0
						}
					}
				}
			}
		}
		JOINT UpperLeg_R
		{
			OFFSET -2.19251 6.46944 0.0
			CHANNELS 6 Xposition Yposition Zposition Zrotation Xrotation Yrotation 
			JOINT LowerLeg_R
			{
				OFFSET -39.0811 -0.00228153 -0.0401928
				CHANNELS 6 Xposition Yposition Zposition Zrotation Xrotation Yrotation 
				JOINT Foot_R
				{
					OFFSET -40.9854 0.0 0.0
					CHANNELS 6 Xposition Yposition Zposition Zrotation Xrotation Yrotation 
					JOINT Toes_R
					{
						OFFSET -11.7543 0.0 0.0
						CHANNELS 6 Xposition Yposition Zposition Zrotation Xrotation Yrotation 
						End Site
						{
							OFFSET 0.0 0.0 0.0
						}
					}
				}
			}
		}
	}
}
MOTION
Frames:	4
Frame Time:	0.0333333
0.000000 0.000000 0.000000 0.000000 0.000000 -0.000000 -0.176482 85.485900 -58.711500 86.063500 11.854000 0.366280 15.735700 0.000005 -0.000001 55.057200 81.442500 -52.614900 8.984550 -0.406207 -0.000000 6.551880 -9.799630 5.450910 16.377300 -0.000001 -0.000001 10.192800 -3.375970 -2.706930 6.456720 -0.000001 -0.000000 1.868570 4.539620 5.116220 12.994200 -0.242716 4.980390 -88.885500 -3.681490 -73.144800 5.348090 -0.000007 -0.000001 -39.036800 23.932500 -36.950000 24.328600 0.000019 0.000005 5.316530 3.441000 -57.178700 22.291600 -0.000001 0.000005 9.308600 5.585720 -10.523200 12.994500 -0.242716 -4.980390 87.484400 4.575060 -61.154400 -5.348130 -0.000001 -0.000004 -60.616600 22.788300 6.670730 -24.328900 0.000322 -0.000009 4.935240 7.280340 -34.276400 -22.291500 -0.000108 -0.000004 1.256700 5.587540 -10.623900 -2.192480 -6.469440 -0.000000 -165.160000 -3.598390 11.845300 39.081100 -0.000007 -0.000012 -0.058792 0.094582 31.865500 40.985400 -0.000006 -0.000013 -1.093710 9.580160 -71.651500 11.754300 -0.000000 0.000003 -0.076170 -0.381104 -32.383200 -2.192510 6.469440 -0.000001 -170.710000 19.856800 141.377000 -39.081100 -0.002282 -0.040193 0.077999 -0.140538 27.989600 -40.985400 0.000008 0.000006 6.772190 -6.741830 -46.914600 -11.754300 -0.000006 -0.000006 -0.030997 -0.221999 -25.670300
0.000000 0.000000 0.000000 0.000000 0.000000 -0.000000 -1.056500 85.089500 -52.843100 85.163500 11.120300 2.217650 15.735700 0.000005 -0.000001 57.696100 81.181100 -54.785800 8.984550 -0.406207 -0.000000 7.464730 -9.398830 6.439550 16.377300 -0.000001 -0.000001 9.831770 -2.897620 -2.973350 6.456720 -0.000001 -0.000000 1.988230 4.636350 4.411030 12.994200 -0.242716 4.980390 -88.961200 -3.333300 -72.678700 5.348090 -0.000007 -0.000001 -41.546800 26.706400 -33.504000 24.328600 0.000019 0.000005 7.258960 4.755450 -56.941600 22.291600 -0.000001 0.000005 8.940050 5.587770 -10.636500 12.994500 -0.242716 -4.980390 87.617000 4.430990 -61.690700 -5.348130 -0.000001 -0.000004 -60.331000 23.191600 5.814460 -24.328900 0.000322 -0.000009 4.854730 7.507410 -33.032600 -22.291500 -0.000108 -0.000004 0.994519 5.589470 -10.731900 -2.192480 -6.469440 -0.000000 -163.294000 -2.306270 13.395700 39.081100 -0.000007 -0.000012 0.003991 -0.005364 36.639700 40.985400 -0.000006 -0.000013 -0.672616 8.889340 -63.493600 11.754300 -0.000000 0.000003 -0.181199 -0.612935 -42.715800 -2.192510 6.469440 -0.000001 -171.399000 15.957500 142.269000 -39.081100 -0.002282 -0.040193 0.082976 -0.105233 37.135600 -40.985400 0.000008 0.000006 7.706640 -9.062650 -49.135500 -11.754300 -0.000006 -0.000006 -0.020754 -0.171430 -23.578500
0.000000 0.000000 0.000000 0.000000 0.000000 -0.000000 -1.859490 85.075100 -47.131200 84.887200 10.495300 4.921120 15.735700 0.000005 -0.000001 60.809300 80.484000 -57.765000 8.984550 -0.406207 -0.000000 9.190320 -9.195610 6.834650 16.377300 -0.000001 -0.000001 9.785360 -2.531030 -2.822990 6.456720 -0.000001 -0.000000 1.770950 4.733210 3.734830 12.994200 -0.242716 4.980390 -88.951700 -3.341740 -72.572800 5.348090 -0.000007 -0.000001 -45.160500 29.154400 -29.345300 24.328600 0.000019 0.000005 8.183020 5.642470 -55.638200 22.291600 -0.000001 0.000005 8.567300 5.590930 -10.814300 12.994500 -0.242716 -4.980390 87.715400 4.377420 -62.404900 -5.348130 -0.000001 -0.000004 -60.030800 24.249100 3.398050 -24.328900 0.000322 -0.000009 5.319840 8.646410 -31.778800 -22.291500 -0.000108 -0.000004 1.211110 5.584980 -10.481900 -2.192480 -6.469440 -0.000000 -163.064000 -0.305052 13.063200 39.081100 -0.000007 -0.000012 0.096331 -0.098582 44.337400 40.985400 -0.000006 -0.000013 0.303419 6.179460 -52.881500 11.754300 -0.000000 0.000003 -0.138625 -0.531778 -38.999500 -2.192510 6.469440 -0.000001 -170.790000 18.058100 145.356000 -39.081100 -0.002282 -0.040193 0.165407 -0.167842 44.010000 -40.985400 0.000008 0.000006 10.349100 -7.329500 -56.345800 -11.754300 -0.000006 -0.000006 -0.009497 -0.099843 -20.640400
0.000000 0.000000 0.000000 0.000000 0.000000 -0.000000 -2.744060 85.369700 -42.159600 85.221000 11.135000 6.356200 15.735700 0.000005 -0.000001 62.782200 80.233100 -59.834600 8.984550 -0.406207 -0.000000 9.927570 -8.824740 6.668310 16.377300 -0.000001 -0.000001 9.627000 -3.080040 -2.259480 6.456720 -0.000001 -0.000000 2.188420 3.919830 3.688120 12.994200 -0.242716 4.980390 -88.871400 -3.649420 -72.802700 5.348090 -0.000007 -0.000001 -47.846800 32.435000 -27.331600 24.328600 0.000019 0.000005 7.733990 6.023400 -52.308100 22.291600 -0.000001 0.000005 7.595370 5.591220 -10.830800 12.994500 -0.242716 -4.980390 87.624600 4.562530 -62.459200 -5.348130 -0.000001 -0.000004 -59.669700 24.864400 1.345930 -24.328900 0.000322 -0.000009 5.320560 8.589790 -31.949800 -22.291500 -0.000108 -0.000004 1.487730 5.584500 -10.455700 -2.192480 -6.469440 -0.000000 -163.867000 1.897060 8.802170 39.081100 -0.000007 -0.000012 0.151330 -0.111929 53.511200 40.985400 -0.000006 -0.000013 2.057200 1.987090 -42.513900 11.754300 -0.000000 0.000003 -0.006019 -0.071017 -19.467100 -2.192510 6.469440 -0.000001 -171.185000 21.338300 148.898000 -39.081100 -0.002282 -0.040193 0.183898 -0.166910 47.262600 -40.985400 0.000008 0.000006 10.531700 -5.979470 -61.981400 -11.754300 -0.000006 -0.000006 -0.005880 -0.069744 -19.411500
